<svg xmlns="http://www.w3.org/2000/svg" width="22.431" height="36.432" viewBox="0 0 22.431 36.432">
  <g id="Mixing_Glass" data-name="Mixing Glass" transform="translate(-287.941 -209.315)">
    <path id="Path_49" data-name="Path 49" d="M1872.016,202.264a45.25,45.25,0,0,0,8.452.894,39.539,39.539,0,0,0,8.9-.894c.272-.194.505-.345.505-.7s.058-.447-.505-.719a35.946,35.946,0,0,0-9.035-1.03,37.521,37.521,0,0,0-8.316,1.03,13.659,13.659,0,0,0-1.3.519,7.394,7.394,0,0,0-1.51,1.091,3.289,3.289,0,0,0-.7,1.48c-.078.583-.078,1.107,0,.835a7.976,7.976,0,0,1,1.088-1.71,2.466,2.466,0,0,1,1.477-.8C1871.608,202.244,1872.016,202.264,1872.016,202.264Z" transform="translate(-1580 10)" fill="none" stroke="#040404" stroke-width="1"/>
    <path id="Path_50" data-name="Path 50" d="M1868.441,213.262a4.68,4.68,0,0,1,1.927-.807,1.73,1.73,0,0,1,1.539.807,24.875,24.875,0,0,1,.194,4.6c-.03.493-.194,23.013-.194,23.013a7.266,7.266,0,0,0,2.532,1.839,16.049,16.049,0,0,0,5.943.887,18.746,18.746,0,0,0,6.3-.887,5.394,5.394,0,0,0,2.43-1.839l.263-27.483s.32-2.849.417-3.158" transform="translate(-1580 1.644)" fill="none" stroke="#404040" stroke-width="1"/>
  </g>
</svg>
