<svg xmlns="http://www.w3.org/2000/svg" width="19.444" height="22.203" viewBox="0 0 19.444 22.203">
  <g id="Pour" transform="translate(-293.286 -165.334)">
    <path id="Path_27" data-name="Path 27" d="M273.932,194.614a48.866,48.866,0,0,1,.195-6.7A4.4,4.4,0,0,1,275,186.1" transform="translate(25.668 -7.775)" fill="none" stroke="#707070" stroke-linecap="round" stroke-width="1"/>
    <path id="Path_28" data-name="Path 28" d="M259.843,182.244c.014-.395-.694-5.367,2.418-9.241s8.249-7.662,13.426-8.166" transform="translate(34 4.775)" fill="none" stroke="#707070" stroke-linecap="round" stroke-width="1"/>
    <path id="Path_29" data-name="Path 29" d="M283.964,173.713s6.02-4.028,6.508-4.73a1.931,1.931,0,0,0,.264-1.985" transform="translate(19.73 3.875)" fill="none" stroke="#707070" stroke-linecap="round" stroke-width="1"/>
    <path id="Path_30" data-name="Path 30" d="M264.277,166.966c-.955-1.413-2.118-3.815-1.907-5.6s.757-2.315,1.023-2.544,11.132-2.807,11.466-2.826a4.178,4.178,0,0,1,1.941.247,11.94,11.94,0,0,1,2.7,4.241,4.488,4.488,0,0,1-.232,2.736c-.513,1.289-9.521,7.19-9.892,7.314s-1.57.284-1.941-.281" transform="translate(32.488 10)" fill="none" stroke="#707070" stroke-width="1.3"/>
    <path id="Path_31" data-name="Path 31" d="M267.232,165.212c.566-.266.708-.266,1.184,0s3.747,3.583,3.957,6.164-.161,2.968-.584,3.41" transform="translate(29.604 4.671)" fill="none" stroke="#707070" stroke-linecap="round" stroke-width="1.1"/>
  </g>
</svg>
