<svg xmlns="http://www.w3.org/2000/svg" width="19.534" height="22.225" viewBox="0 0 19.534 22.225">
  <g id="Shaker" transform="translate(-113.05 -149.452)">
    <path id="Path_20" data-name="Path 20" d="M96.594,146.7a3.576,3.576,0,0,1,1.442-2.321,4.687,4.687,0,0,1,2.7-.941" transform="translate(23.287 7.844)" fill="none" stroke="#707070" stroke-linecap="round" stroke-width="1"/>
    <path id="Path_21" data-name="Path 21" d="M97.608,146.369a3.388,3.388,0,0,1,1.161-1.589,3.657,3.657,0,0,1,1.694-.781" transform="translate(21.531 6)" fill="none" stroke="#707070" stroke-linecap="round" stroke-width="1"/>
    <path id="Path_22" data-name="Path 22" d="M0,3.262A3.576,3.576,0,0,1,1.442.941,4.687,4.687,0,0,1,4.14,0" transform="translate(128.874 169.104) rotate(180)" fill="none" stroke="#707070" stroke-linecap="round" stroke-width="1"/>
    <path id="Path_23" data-name="Path 23" d="M0,2.371A3.388,3.388,0,0,1,1.161.781,3.657,3.657,0,0,1,2.856,0" transform="translate(129.462 170.289) rotate(180)" fill="none" stroke="#707070" stroke-linecap="round" stroke-width="1"/>
    <path id="Path_24" data-name="Path 24" d="M79.5,159.164c-.148-1.75,8.788-10.873,9.16-11.672s.838-.656,1.3-.684.886-.686,1.854-.84,1.582.48,2.019.223a6.491,6.491,0,0,1,2.255-.873c.68-.027,2.127,1.309,2.045,2.174a7.609,7.609,0,0,1-.835,2.052c-.16.493.355.974.2,1.943s-1,1-.827,1.932.094,1-.856,1.5-10.424,9.515-11.758,9.039S79.648,160.915,79.5,159.164Z" transform="translate(34 7.276)" fill="none" stroke="#707070" stroke-linecap="round" stroke-width="0.9"/>
    <path id="Path_25" data-name="Path 25" d="M105.006,151.75l7.385,7.628" transform="translate(18.015 2.635)" fill="none" stroke="#707070" stroke-width="1"/>
    <path id="Path_26" data-name="Path 26" d="M118.033,149.709l3.227,3.342" transform="translate(9.852 3.915)" fill="none" stroke="#707070" stroke-width="0.5"/>
  </g>
</svg>
