<svg xmlns="http://www.w3.org/2000/svg" width="26.093" height="47.303" viewBox="0 0 26.093 47.303">
  <g id="Shaker_Plus" data-name="Shaker Plus" transform="translate(-104.907 -21.348)">
    <g id="Shaker" transform="translate(-145.119 -159.774)">
      <path id="Path_43" data-name="Path 43" d="M1835.834,177.97v-4.323s1.034-2.024,1.982-2.024h4.566c1.12,0,2.024,2.024,2.024,2.024v4.323h1.747c.412.022.665.544,1.053,1.233s2.5,8.313,2.5,8.313l-2.5,28.6s-.99,1.809-1.637,1.809h-10.725c-.6,0-1.852-1.335-1.895-1.809s-2.412-28.6-2.412-28.6,2.025-7.839,2.412-8.313.869-1.177,1.37-1.233A12.924,12.924,0,0,1,1835.834,177.97Z" transform="translate(-1580.01 10)" fill="none" stroke="#404040" stroke-width="1"/>
      <line id="Line_9" data-name="Line 9" x2="19.238" transform="translate(250.5 197.21)" fill="none" stroke="#404040" stroke-width="1"/>
      <path id="Path_44" data-name="Path 44" d="M-.047.063h8.17" transform="translate(256.115 187.93)" fill="none" stroke="#404040" stroke-width="1"/>
    </g>
    <line id="Line_10" data-name="Line 10" x2="6" transform="translate(124.5 29.5)" fill="none" stroke="#040404" stroke-linecap="round" stroke-width="1"/>
    <line id="Line_11" data-name="Line 11" y1="6" transform="translate(127.5 26.5)" fill="none" stroke="#040404" stroke-linecap="round" stroke-width="1"/>
  </g>
</svg>
