<svg xmlns="http://www.w3.org/2000/svg" width="13.027" height="22.366" viewBox="0 0 13.027 22.366">
  <g id="Stir" transform="translate(-47.834 -471.824)">
    <path id="Path_32" data-name="Path 32" d="M16.323,461.52a4.889,4.889,0,0,1,1.035,1.122c.171.417,1.559,11.635,1.644,11.729s-.215,2.436.657,3.647,2.444,1.761,2.71,1.562a2.69,2.69,0,0,0-.258-2.8,8.019,8.019,0,0,0-2.277-1.855c-.4-.192-.677-.508-.833-1.346s-.8-5.09-1.185-7.769a27.578,27.578,0,0,0-.459-3.166C17.209,462.211,16.358,461.55,16.323,461.52Z" transform="translate(32.067 10.776)" fill="#707070" stroke="#707070" stroke-linecap="round" stroke-width="0.9"/>
    <path id="Path_34" data-name="Path 34" d="M16.452,481.866l.024.207.708,6.163a55.194,55.194,0,0,0,.865,5.991c.259,1.113,2.1,1.716,4.055,1.728,1.877.013,3.888-.636,4.242-1.479.683-1.627,1.485-12.275,1.485-12.275" transform="translate(32.357 -2.365)" fill="none" stroke="#707070" stroke-width="1.2"/>
    <g id="Path_35" data-name="Path 35" transform="translate(48.208 476.854)" fill="rgba(255,255,255,0)">
      <path d="M 6.326667785644531 4.526699066162109 C 2.861397743225098 4.526699066162109 0.6499977707862854 3.378678798675537 0.6499977707862854 2.588348865509033 C 0.6499977707862854 1.79801881313324 2.861397743225098 0.6499988436698914 6.326667785644531 0.6499988436698914 C 9.791937828063965 0.6499988436698914 12.00333786010742 1.79801881313324 12.00333786010742 2.588348865509033 C 12.00333786010742 3.378678798675537 9.791937828063965 4.526699066162109 6.326667785644531 4.526699066162109 Z" stroke="none"/>
      <path d="M 6.326667785644531 1.299998760223389 C 4.971237659454346 1.299998760223389 3.67045783996582 1.492238759994507 2.663937568664551 1.841298818588257 C 1.826421737670898 2.131758213043213 1.451066970825195 2.440340042114258 1.330934524536133 2.588348865509033 C 1.451066970825195 2.736357688903809 1.826421737670898 3.044939517974854 2.663937568664551 3.33539891242981 C 3.67045783996582 3.68445873260498 4.971237659454346 3.876698970794678 6.326667785644531 3.876698970794678 C 7.682097911834717 3.876698970794678 8.982877731323242 3.68445873260498 9.989398002624512 3.33539891242981 C 10.82691383361816 3.044939517974854 11.20226860046387 2.736357688903809 11.32240104675293 2.588348865509033 C 11.20226860046387 2.440340042114258 10.82691383361816 2.131758213043213 9.989398002624512 1.841298818588257 C 8.982877731323242 1.492238759994507 7.682097911834717 1.299998760223389 6.326667785644531 1.299998760223389 M 6.326667785644531 -9.5367431640625e-07 C 9.82078742980957 -9.5367431640625e-07 12.6533374786377 1.158838748931885 12.6533374786377 2.588348865509033 C 12.6533374786377 4.017858982086182 9.82078742980957 5.176698684692383 6.326667785644531 5.176698684692383 C 2.832548141479492 5.176698684692383 -1.9073486328125e-06 4.017858982086182 -1.9073486328125e-06 2.588348865509033 C -1.9073486328125e-06 1.158838748931885 2.832548141479492 -9.5367431640625e-07 6.326667785644531 -9.5367431640625e-07 Z" stroke="none" fill="#707070"/>
    </g>
    <g id="Path_36" data-name="Path 36" transform="translate(47.834 472.847)" fill="rgba(255,255,255,0)">
      <path d="M 4.338993549346924 2.904977798461914 C 1.903953552246094 2.904977798461914 0.3500035405158997 2.148367881774902 0.3500035405158997 1.627487897872925 C 0.3500035405158997 1.106607913970947 1.903953552246094 0.3499979078769684 4.338993549346924 0.3499979078769684 C 6.774033546447754 0.3499979078769684 8.327983856201172 1.106607913970947 8.327983856201172 1.627487897872925 C 8.327983856201172 2.148367881774902 6.774033546447754 2.904977798461914 4.338993549346924 2.904977798461914 Z" stroke="none"/>
      <path d="M 4.338993549346924 0.6999979019165039 C 2.086277961730957 0.6999979019165039 0.8394269943237305 1.355473399162292 0.7050790786743164 1.627487897872925 C 0.8394269943237305 1.899502396583557 2.086277961730957 2.554977893829346 4.338993549346924 2.554977893829346 C 6.591709136962891 2.554977893829346 7.838560104370117 1.899502396583557 7.972908020019531 1.627487897872925 C 7.838560104370117 1.355473399162292 6.591709136962891 0.6999979019165039 4.338993549346924 0.6999979019165039 M 4.338993549346924 -2.145767211914063e-06 C 6.735353469848633 -2.145767211914063e-06 8.677983283996582 0.7286479473114014 8.677983283996582 1.627487897872925 C 8.677983283996582 2.526327848434448 6.735353469848633 3.254977941513062 4.338993549346924 3.254977941513062 C 1.942633628845215 3.254977941513062 3.814697265625e-06 2.526327848434448 3.814697265625e-06 1.627487897872925 C 3.814697265625e-06 0.7286479473114014 1.942633628845215 -2.145767211914063e-06 4.338993549346924 -2.145767211914063e-06 Z" stroke="none" fill="#707070"/>
    </g>
    <path id="Path_38" data-name="Path 38" d="M1.307,1.165,0,0" transform="translate(52.809 472.162)" fill="none" stroke="#707070" stroke-width="0.5"/>
    <path id="Path_37" data-name="Path 37" d="M1.944.645l-1.3.714" transform="translate(52.065 472.692)" fill="none" stroke="#707070" stroke-width="0.5"/>
  </g>
</svg>
