<svg xmlns="http://www.w3.org/2000/svg" width="16.856" height="19.643" viewBox="0 0 16.856 19.643">
  <g id="UFO" transform="translate(-145.267 -55.058)">
    <path id="Path_14" data-name="Path 14" d="M121.126,51.7c-.011-.478-6.324-3.36-6.324-3.36-.191,0-1.923,1.584-1.887,1.847,0,0,2.964,6.861,3.262,6.765S121.137,52.181,121.126,51.7Z" transform="translate(33 9)" fill="none" stroke="#707070" stroke-width="1.3"/>
    <path id="Path_15" data-name="Path 15" d="M117.425,47.959a4.517,4.517,0,0,1,2.456-.31,4.658,4.658,0,0,1,2.052,1.538" transform="translate(35 10)" fill="none" stroke="#707070" stroke-width="1"/>
    <path id="Path_16" data-name="Path 16" d="M117.425,47.959a4.517,4.517,0,0,1,2.456-.31,4.658,4.658,0,0,1,2.052,1.538" transform="translate(36 8)" fill="none" stroke="#707070" stroke-width="1"/>
    <path id="Path_17" data-name="Path 17" d="M117.425,47.959a4.517,4.517,0,0,1,2.456-.31,4.658,4.658,0,0,1,2.052,1.538" transform="translate(270.358 119.76) rotate(180)" fill="none" stroke="#707070" stroke-width="1"/>
    <path id="Path_18" data-name="Path 18" d="M117.425,47.959a4.517,4.517,0,0,1,2.456-.31,4.658,4.658,0,0,1,2.052,1.538" transform="translate(269.358 121.76) rotate(180)" fill="none" stroke="#707070" stroke-width="1"/>
    <path id="Path_19" data-name="Path 19" d="M116.609,57.931c.191-.3,5.228-5.473,5.54-5.627s5.611,6.562,5.333,7.314a10.32,10.32,0,0,1-3.537,3.492C122.921,63.463,116.418,58.232,116.609,57.931Z" transform="translate(34 10)" fill="none" stroke="#707070" stroke-width="1.3"/>
  </g>
</svg>
